<!DOCTYPE svg PUBLIC "-//W3C//DTD SVG 1.1//EN" "http://www.w3.org/Graphics/SVG/1.1/DTD/svg11.dtd">

<!-- Uploaded to: SVG Repo, www.svgrepo.com, Transformed by: SVG Repo Mixer Tools -->
<svg width="800px" height="800px" viewBox="0 0 1024 1024" xmlns="http://www.w3.org/2000/svg" fill="#000000" stroke="#000000" stroke-width="0.01024">

<g id="SVGRepo_bgCarrier" stroke-width="0"/>

<g id="SVGRepo_tracerCarrier" stroke-linecap="round" stroke-linejoin="round"/>

<g id="SVGRepo_iconCarrier">

<path fill="#ffffff" d="M192 736h640V128H256a64 64 0 0 0-64 64v544zm64-672h608a32 32 0 0 1 32 32v672a32 32 0 0 1-32 32H160l-32 57.536V192A128 128 0 0 1 256 64z"/>

<path fill="#ffffff" d="M240 800a48 48 0 1 0 0 96h592v-96H240zm0-64h656v160a64 64 0 0 1-64 64H240a112 112 0 0 1 0-224zm144-608v250.88l96-76.8 96 76.8V128H384zm-64-64h320v381.44a32 32 0 0 1-51.968 24.96L480 384l-108.032 86.4A32 32 0 0 1 320 445.44V64z"/>

</g>

</svg>